<svg version="1.1" width="400" height="400" viewBox="0 0 400 400" xmlns="http://www.w3.org/2000/svg" xmlns:xlink="http://www.w3.org/1999/xlink" style="display: block;"><g id="svgg"><path d="M105.583 106.069 C 49.838 113.240,13.309 166.214,26.363 220.953 C 34.856 256.563,64.426 283.728,102.095 290.523 C 105.935 291.216,208.763 291.785,209.428 291.118 C 209.591 290.954,209.751 267.969,209.783 240.039 L 209.841 189.258 208.812 183.594 C 202.110 146.702,175.240 116.951,141.016 108.530 C 129.240 105.632,116.085 104.719,105.583 106.069 M295.613 106.265 C 262.593 109.728,236.193 134.512,230.441 167.445 C 229.461 173.055,229.232 252.203,230.194 252.814 C 230.453 252.979,248.488 253.116,270.274 253.119 C 312.339 253.125,309.773 253.220,319.336 251.308 C 322.197 250.737,329.174 248.578,331.055 247.683 C 331.484 247.479,333.416 246.573,335.346 245.671 C 366.185 231.259,383.063 195.055,374.562 161.552 C 365.614 126.286,331.630 102.488,295.613 106.265 " stroke="none" fill="#fcc404" fill-rule="evenodd"></path></g></svg>